<svg width="40" height="40" viewBox="0 0 48 48" xmlns="http://www.w3.org/2000/svg">
  <defs>
    <linearGradient id="gh" x1="0%" y1="0%" x2="100%" y2="100%">
      <stop offset="0%" stop-color="#6a11cb"/>
      <stop offset="100%" stop-color="#2575fc"/>
    </linearGradient>
  </defs>
  <rect width="48" height="48" rx="12" fill="url(#gh)"/>
  <path fill="#fff" d="M24 14c-5.5 0-10 4.6-10 10.2 0 4.5 2.8 8.4 6.7 9.8.5.1.7-.2.7-.5v-2c-2.7.6-3.3-1.3-3.3-1.3-.4-1-1-1.3-1-1.3-.9-.6.1-.6.1-.6 1 .1 1.5 1 1.5 1 .9 1.6 2.3 1.1 2.8.8.1-.7.4-1.1.7-1.4-2.2-.3-4.4-1.2-4.4-5 0-1.1.4-2 1-2.8-.1-.3-.5-1.4.1-2.9 0 0 .8-.3 2.8 1.1a9.3 9.3 0 0 1 5 0c2-1.4 2.8-1.1 2.8-1.1.6 1.5.2 2.6.1 2.9.6.8 1 1.7 1 2.8 0 3.8-2.2 4.7-4.4 5 .4.4.7 1.1.7 2.3v3.4c0 .3.2.6.7.5 4-1.4 6.7-5.3 6.7-9.8C34 18.6 29.5 14 24 14z"/>
</svg>