<svg width="40" height="40" viewBox="0 0 48 48" xmlns="http://www.w3.org/2000/svg">
  <rect width="48" height="48" rx="12" fill="#fff"/>
  <path fill="#EA4335" d="M24 14a10 10 0 0 1 7 2.6l4.7-4.6A17 17 0 0 0 24 7a17 17 0 1 0 0 34 16.2 16.2 0 0 0 11.4-4.5c3.1-2.9 4.6-7 4.6-11.5 0-1-.1-2-.2-3H24v6h10.1a10 10 0 0 1-4.4 6.6A10.3 10.3 0 0 1 24 34a10 10 0 1 1 0-20z"/>
  <path fill="#FBBC05" d="M10.8 19.8A10 10 0 0 1 24 14v6H10.2a10 10 0 0 1 .6-3.2z"/>
  <path fill="#34A853" d="M24 34a10 10 0 0 1-9.2-6.1l-5.1 4a17 17 0 0 0 25.7 3.6l-6-4.6A10 10 0 0 1 24 34z"/>
  <path fill="#4285F4" d="M34.1 27.4 40 31.9A16.6 16.6 0 0 0 41 24c0-1-.1-2-.3-3H24v6h10.1z"/>
</svg>